<svg width="30" height="30" viewBox="0 0 29 25" fill="none" xmlns="http://www.w3.org/2000/svg">
<path d="M15.7125 22.9825L25.8375 12.8575C28.325 10.3575 28.6875 6.27005 26.3375 3.65755C25.7481 2.99918 25.0307 2.4679 24.2291 2.09615C23.4275 1.7244 22.5585 1.52 21.6752 1.49543C20.7919 1.47087 19.9129 1.62665 19.0919 1.95326C18.2709 2.27987 17.525 2.77046 16.9 3.39505L15 5.30755L13.3625 3.65755C10.8625 1.17005 6.77499 0.807545 4.16249 3.15755C3.50413 3.7469 2.97284 4.46431 2.60109 5.26592C2.22935 6.06754 2.02494 6.93653 2.00038 7.81981C1.97581 8.70309 2.13159 9.5821 2.4582 10.4031C2.78482 11.2242 3.2754 11.97 3.89999 12.595L14.2875 22.9825C14.4771 23.1703 14.7331 23.2757 15 23.2757C15.2668 23.2757 15.5229 23.1703 15.7125 22.9825V22.9825Z" stroke="#D9D9D9" stroke-width="2" stroke-linecap="round" stroke-linejoin="round"/>
</svg>
